# xmcd
#
# Track frame offsets: 
#        150
#        16720
#        27297
#        37072
#        48305
#        57872
#        73327
#        87685
#        99412
#        113030
#        124402
#        140990
#        149265
#        163405
#        173927
#        188930
#        199195
#
# Disc length: 2902 seconds
#
# Revision: 1
# Processed by: cddbd v1.5.1PL2 Copyright (c) Steve Scherf et al.
# Submitted via: ExactAudioCopy v0.95b4
#
DISCID=070b5411
DTITLE=Greenhorns and The White Stars - Písnì amerického západu
DYEAR=1995
DGENRE=Country
TTITLE0=Pøes Plánì
TTITLE1=Vùz do Tenessee
TTITLE2=Má Whisky
TTITLE3=Jesse James
TTITLE4=John Hardy
TTITLE5=Èervená øeka
TTITLE6=Drnová chajda
TTITLE7=Èekání na vlak
TTITLE8=T jako Texas
TTITLE9=Na sluneèní stranì hor
TTITLE10=Svatební zvony
TTITLE11=Hardy
TTITLE12=Zátoka
TTITLE13=Odjízdím v dál
TTITLE14=Zloutnou uz trávy
TTITLE15=Koèárem mým je vagón uhlí
TTITLE16=Proklatej vùz
EXTD=YEAR: 1995
EXTT0=
EXTT1=
EXTT2=
EXTT3=
EXTT4=
EXTT5=
EXTT6=
EXTT7=
EXTT8=
EXTT9=
EXTT10=
EXTT11=
EXTT12=
EXTT13=
EXTT14=
EXTT15=
EXTT16=
PLAYORDER=
